<?xml version="1.0" standalone="no"?>
<!DOCTYPE svg PUBLIC "-//W3C//DTD SVG 20010904//EN"
 "http://www.w3.org/TR/2001/REC-SVG-20010904/DTD/svg10.dtd">
<svg version="1.0" xmlns="http://www.w3.org/2000/svg"
 width="253.000000pt" height="253.000000pt" viewBox="0 0 253.000000 253.000000"
 preserveAspectRatio="xMidYMid meet">
<metadata>
Created by potrace 1.14, written by Peter Selinger 2001-2017
</metadata>
<g transform="translate(0.000000,253.000000) scale(0.100000,-0.100000)"
fill="#000000" stroke="none">
<path d="M550 2501 c-13 -26 2 -67 29 -74 14 -3 43 -51 96 -156 88 -176 63
-167 227 -85 117 59 111 59 123 -16 3 -19 8 -42 10 -50 2 -8 7 -31 10 -50 3
-19 10 -51 15 -70 5 -19 11 -53 15 -75 3 -22 8 -48 11 -58 4 -12 -11 -34 -50
-73 -30 -30 -61 -71 -68 -90 l-12 -34 -276 -1 c-151 0 -287 -2 -301 -4 -36 -5
-79 -28 -106 -57 -47 -50 -53 -84 -53 -295 l-1 -198 -40 -28 c-45 -31 -94
-103 -110 -162 -28 -102 17 -229 104 -295 l47 -35 0 -217 c0 -120 0 -220 0
-223 -1 -12 34 -72 54 -93 11 -13 38 -33 58 -43 36 -18 72 -19 935 -19 855 0
900 1 939 19 44 20 85 67 101 116 6 17 10 128 10 247 l0 216 50 49 c84 82 114
178 87 282 -18 68 -71 141 -122 170 -10 6 -14 57 -16 217 -2 126 -7 220 -14
236 -17 41 -78 96 -120 108 -21 6 -157 10 -319 10 -161 0 -283 4 -283 9 0 5
-16 32 -35 61 -19 29 -35 55 -35 59 0 3 29 36 63 73 34 37 89 99 122 137 33
38 65 70 70 70 6 0 41 -49 80 -109 38 -61 76 -110 84 -110 8 0 81 43 161 95
106 68 152 93 167 89 14 -4 29 2 42 15 26 26 26 43 1 66 -26 24 -68 13 -76
-20 -4 -17 -41 -47 -128 -103 -67 -44 -132 -84 -143 -90 -19 -10 -27 -2 -93
101 -40 62 -78 115 -84 119 -11 8 -19 0 -141 -137 -38 -43 -91 -101 -116 -129
l-46 -50 -29 21 c-72 50 -192 67 -272 40 -23 -8 -44 -11 -47 -7 -3 5 -21 89
-40 187 -20 98 -38 188 -40 201 -3 12 -12 22 -20 22 -9 0 -69 -27 -135 -60
l-120 -60 -69 138 c-51 103 -68 145 -64 165 3 15 0 34 -7 42 -18 22 -67 19
-80 -4z m1520 -958 c47 -19 70 -41 91 -88 17 -37 19 -78 19 -615 0 -347 -4
-589 -10 -610 -11 -39 -59 -89 -103 -108 -44 -19 -1569 -17 -1605 2 -41 21
-67 47 -87 85 -16 31 -17 82 -18 627 l0 592 22 38 c27 45 52 65 101 80 24 8
271 11 795 11 631 0 766 -2 795 -14z"/>
<path d="M717 852 c-108 -35 -191 -150 -185 -255 3 -48 5 -52 36 -61 43 -12
68 10 75 69 9 85 81 148 168 148 83 0 155 -65 165 -150 8 -67 61 -95 99 -53
13 15 16 30 12 67 -19 177 -199 292 -370 235z"/>
<path d="M1636 853 c-58 -17 -134 -86 -162 -148 -31 -65 -33 -149 -5 -165 50
-26 85 -1 94 68 11 86 95 154 179 146 79 -8 140 -67 152 -149 11 -69 62 -98
101 -55 13 15 16 30 12 67 -19 181 -189 288 -371 236z"/>
</g>
</svg>
